<mxfile host="app.diagrams.net" modified="2023-11-11T06:17:42.117Z" agent="Mozilla/5.0 (Windows NT 10.0; Win64; x64; rv:120.0) Gecko/20100101 Firefox/120.0" version="22.1.0" etag="Is2P0AlqWmVKcRID4ZHQ" type="github">
  <diagram name="Page-1" id="sCX-XGDkQQIekWJOc8Ai">
    <mxGraphModel>
      <root>
        <mxCell id="0" />
        <mxCell id="1" parent="0" />
      </root>
    </mxGraphModel>
  </diagram>
</mxfile>
